<svg id="Icon_Set" enable-background="new 0 0 64 64" height="512" viewBox="0 0 64 64" width="512" xmlns="http://www.w3.org/2000/svg"><path d="m31 28h-16c-3.314 0-6-2.686-6-6v-16c0-1.105.895-2 2-2h24c1.105 0 2 .895 2 2v16c0 3.314-2.686 6-6 6z" fill="#4e4b51"/><path d="m31 28.5h-16c-3.584 0-6.5-2.916-6.5-6.5v-16c0-1.378 1.122-2.5 2.5-2.5h24c1.378 0 2.5 1.122 2.5 2.5v16c0 3.584-2.916 6.5-6.5 6.5zm-20-24c-.827 0-1.5.673-1.5 1.5v16c0 3.033 2.467 5.5 5.5 5.5h16c3.033 0 5.5-2.467 5.5-5.5v-16c0-.827-.673-1.5-1.5-1.5z" fill="#212a41"/><path d="m37 58h-28c-2.209 0-4-1.791-4-4v-42c0-2.209 1.791-4 4-4h28c2.209 0 4 1.791 4 4v42c0 2.209-1.791 4-4 4z" fill="#005b8a"/><path d="m37 58.5h-28c-2.481 0-4.5-2.019-4.5-4.5v-42c0-2.481 2.019-4.5 4.5-4.5h28c2.481 0 4.5 2.019 4.5 4.5v42c0 2.481-2.019 4.5-4.5 4.5zm-28-50c-1.93 0-3.5 1.57-3.5 3.5v42c0 1.93 1.57 3.5 3.5 3.5h28c1.93 0 3.5-1.57 3.5-3.5v-42c0-1.93-1.57-3.5-3.5-3.5z" fill="#212a41"/><path d="m45 58h-28c-2.209 0-4-1.791-4-4v-42c0-2.209 1.791-4 4-4h28c2.209 0 4 1.791 4 4v42c0 2.209-1.791 4-4 4z" fill="#0079a8"/><path d="m45 58.5h-28c-2.481 0-4.5-2.019-4.5-4.5v-42c0-2.481 2.019-4.5 4.5-4.5h28c2.481 0 4.5 2.019 4.5 4.5v42c0 2.481-2.019 4.5-4.5 4.5zm-28-50c-1.93 0-3.5 1.57-3.5 3.5v42c0 1.93 1.57 3.5 3.5 3.5h28c1.93 0 3.5-1.57 3.5-3.5v-42c0-1.93-1.57-3.5-3.5-3.5z" fill="#212a41"/><path d="m47 54.5c-.276 0-.5-.224-.5-.5v-42c0-.276.224-.5.5-.5s.5.224.5.5v42c0 .276-.224.5-.5.5z" fill="#005b8a"/><path d="m39 28h-16c-3.314 0-6-2.686-6-6v-16c0-1.105.895-2 2-2h24c1.105 0 2 .895 2 2v16c0 3.314-2.686 6-6 6z" fill="#6c696f"/><path d="m39 28.5h-16c-3.584 0-6.5-2.916-6.5-6.5v-16c0-1.378 1.122-2.5 2.5-2.5h24c1.378 0 2.5 1.122 2.5 2.5v16c0 3.584-2.916 6.5-6.5 6.5zm-20-24c-.827 0-1.5.673-1.5 1.5v16c0 3.033 2.467 5.5 5.5 5.5h16c3.033 0 5.5-2.467 5.5-5.5v-16c0-.827-.673-1.5-1.5-1.5z" fill="#212a41"/><path d="m40 23h-18c-.552 0-1-.448-1-1v-8c0-.552.448-1 1-1h18c.552 0 1 .448 1 1v8c0 .552-.448 1-1 1z" fill="#bed38e"/><path d="m40 23.5h-18c-.827 0-1.5-.673-1.5-1.5v-8c0-.827.673-1.5 1.5-1.5h18c.827 0 1.5.673 1.5 1.5v8c0 .827-.673 1.5-1.5 1.5zm-18-10c-.276 0-.5.224-.5.5v8c0 .276.224.5.5.5h18c.276 0 .5-.224.5-.5v-8c0-.276-.224-.5-.5-.5z" fill="#212a41"/><path d="m41 51h-20c-1.105 0-2-.895-2-2v-14c0-1.105.895-2 2-2h20c1.105 0 2 .895 2 2v14c0 1.105-.895 2-2 2z" fill="#e0e0e0"/><g fill="#212a41"><path d="m41 51.5h-20c-1.378 0-2.5-1.122-2.5-2.5v-14c0-1.378 1.122-2.5 2.5-2.5h20c1.378 0 2.5 1.122 2.5 2.5v14c0 1.378-1.122 2.5-2.5 2.5zm-20-18c-.827 0-1.5.673-1.5 1.5v14c0 .827.673 1.5 1.5 1.5h20c.827 0 1.5-.673 1.5-1.5v-14c0-.827-.673-1.5-1.5-1.5z"/><path d="m25 51.5c-.276 0-.5-.224-.5-.5v-18c0-.276.224-.5.5-.5s.5.224.5.5v18c0 .276-.224.5-.5.5z"/><path d="m31 51.5c-.276 0-.5-.224-.5-.5v-18c0-.276.224-.5.5-.5s.5.224.5.5v18c0 .276-.224.5-.5.5z"/><path d="m37 51.5c-.276 0-.5-.224-.5-.5v-18c0-.276.224-.5.5-.5s.5.224.5.5v18c0 .276-.224.5-.5.5z"/><path d="m43 39.5h-24c-.276 0-.5-.224-.5-.5s.224-.5.5-.5h24c.276 0 .5.224.5.5s-.224.5-.5.5z"/><path d="m43 45.5h-24c-.276 0-.5-.224-.5-.5s.224-.5.5-.5h24c.276 0 .5.224.5.5s-.224.5-.5.5z"/></g><path d="m54 60h-24c-1.105 0-2-.895-2-2v-17c0-1.105.895-2 2-2h24c1.105 0 2 .895 2 2v17c0 1.105-.895 2-2 2z" fill="#c2c2c2"/><path d="m54 60.5h-24c-1.378 0-2.5-1.122-2.5-2.5v-17c0-1.378 1.122-2.5 2.5-2.5h24c1.378 0 2.5 1.122 2.5 2.5v17c0 1.378-1.122 2.5-2.5 2.5zm-24-21c-.827 0-1.5.673-1.5 1.5v17c0 .827.673 1.5 1.5 1.5h24c.827 0 1.5-.673 1.5-1.5v-17c0-.827-.673-1.5-1.5-1.5z" fill="#212a41"/><path d="m57 60h-24c-1.105 0-2-.895-2-2v-17c0-1.105.895-2 2-2h24c1.105 0 2 .895 2 2v17c0 1.105-.895 2-2 2z" fill="#e0e0e0"/><path d="m57 60.5h-24c-1.378 0-2.5-1.122-2.5-2.5v-17c0-1.378 1.122-2.5 2.5-2.5h24c1.378 0 2.5 1.122 2.5 2.5v17c0 1.378-1.122 2.5-2.5 2.5zm-24-21c-.827 0-1.5.673-1.5 1.5v17c0 .827.673 1.5 1.5 1.5h24c.827 0 1.5-.673 1.5-1.5v-17c0-.827-.673-1.5-1.5-1.5z" fill="#212a41"/><path d="m31 43h28v4h-28z" fill="#6c696f"/><circle cx="53" cy="54" fill="#f9ac2f" r="2"/><path d="m53 56.5c-1.378 0-2.5-1.122-2.5-2.5s1.122-2.5 2.5-2.5 2.5 1.122 2.5 2.5-1.122 2.5-2.5 2.5zm0-4c-.827 0-1.5.673-1.5 1.5s.673 1.5 1.5 1.5 1.5-.673 1.5-1.5-.673-1.5-1.5-1.5z" fill="#212a41"/><circle cx="50" cy="54" fill="#d32e5e" r="2"/><path d="m50 56.5c-1.378 0-2.5-1.122-2.5-2.5s1.122-2.5 2.5-2.5 2.5 1.122 2.5 2.5-1.122 2.5-2.5 2.5zm0-4c-.827 0-1.5.673-1.5 1.5s.673 1.5 1.5 1.5 1.5-.673 1.5-1.5-.673-1.5-1.5-1.5z" fill="#212a41"/><path d="m34.855 52h8v4h-8z" fill="#b7c0d7"/><path d="m42.855 56.5h-8c-.276 0-.5-.224-.5-.5v-4c0-.276.224-.5.5-.5h8c.276 0 .5.224.5.5v4c0 .276-.223.5-.5.5zm-7.5-1h7v-3h-7z" fill="#212a41"/><path d="m35 8.5h-8c-.276 0-.5-.224-.5-.5s.224-.5.5-.5h8c.276 0 .5.224.5.5s-.224.5-.5.5z" fill="#212a41"/><path d="m15 54.5c-.276 0-.5-.224-.5-.5v-42c0-.276.224-.5.5-.5s.5.224.5.5v42c0 .276-.224.5-.5.5z" fill="#1e97c6"/><path d="m7 54.5c-.276 0-.5-.224-.5-.5v-42c0-.276.224-.5.5-.5s.5.224.5.5v42c0 .276-.224.5-.5.5z" fill="#0079a8"/><path d="m23 21.5c-.276 0-.5-.224-.5-.5v-6c0-.276.224-.5.5-.5s.5.224.5.5v6c0 .276-.224.5-.5.5z" fill="#dcf1ac"/><path d="m39 21.5c-.276 0-.5-.224-.5-.5v-6c0-.276.224-.5.5-.5s.5.224.5.5v6c0 .276-.224.5-.5.5z" fill="#a0b570"/><path d="m33 58.5c-.276 0-.5-.224-.5-.5v-17c0-.276.224-.5.5-.5s.5.224.5.5v17c0 .276-.224.5-.5.5z" fill="#fefefe"/><path d="m57 58.5c-.276 0-.5-.224-.5-.5v-17c0-.276.224-.5.5-.5s.5.224.5.5v17c0 .276-.224.5-.5.5z" fill="#c2c2c2"/><path d="m33 47.5c-.276 0-.5-.224-.5-.5v-4c0-.276.224-.5.5-.5s.5.224.5.5v4c0 .276-.224.5-.5.5z" fill="#8a878d"/><path d="m57 47.5c-.276 0-.5-.224-.5-.5v-4c0-.276.224-.5.5-.5s.5.224.5.5v4c0 .276-.224.5-.5.5z" fill="#4e4b51"/><path d="m59 47.5h-28c-.276 0-.5-.224-.5-.5v-4c0-.276.224-.5.5-.5h28c.276 0 .5.224.5.5v4c0 .276-.224.5-.5.5zm-27.5-1h27v-3h-27z" fill="#212a41"/></svg>