<svg height="512" viewBox="0 0 64 64" width="512" xmlns="http://www.w3.org/2000/svg"><path d="m25 15 2.447-4.894a2 2 0 0 1 1.789-1.106h5.528a2 2 0 0 1 1.789 1.106l2.447 4.894z" fill="#f1bf37"/><path d="m29.5 12h1v1h-1z"/><path d="m30.5 11h1v1h-1z"/><path d="m31.5 12h1v1h-1z"/><path d="m32.5 11h1v1h-1z"/><path d="m33.5 12h1v1h-1z"/><path d="m51 37h-38l1.5-16.54a6.009 6.009 0 0 1 5.98-5.46h23.04a6.009 6.009 0 0 1 5.98 5.46z" fill="#4393c1"/><path d="m27 37h-8l.847-10.166a2 2 0 0 1 1.993-1.834h2.32a2 2 0 0 1 1.993 1.834z" fill="#46b29d"/><path d="m45 37h-8l.847-10.166a2 2 0 0 1 1.993-1.834h2.32a2 2 0 0 1 1.993 1.834z" fill="#46b29d"/><path d="m27 15 .811 3.243a1 1 0 0 0 .97.757h6.438a1 1 0 0 0 .97-.757l.811-3.243z" fill="#324d5c"/><path d="m27 37h25.21a2 2 0 0 1 1.99 1.78l1.55 14a2 2 0 0 1 -1.98 2.22h-43.54a2 2 0 0 1 -1.98-2.22l1.55-14a2 2 0 0 1 1.99-1.78h7.21" fill="#f1bf37"/><path d="m13 55h4a0 0 0 0 1 0 0v4a2 2 0 0 1 -2 2 2 2 0 0 1 -2-2v-4a0 0 0 0 1 0 0z" fill="#324d5c"/><path d="m47 55h4a0 0 0 0 1 0 0v4a2 2 0 0 1 -2 2 2 2 0 0 1 -2-2v-4a0 0 0 0 1 0 0z" fill="#324d5c"/><rect fill="#4393c1" height="6" rx="2" width="6" x="14" y="42"/><rect fill="#4393c1" height="6" rx="2" width="6" x="44" y="42"/><path d="m24 47a2 2 0 0 1 2-2h12a2 2 0 0 1 2 2v8h-16z" fill="#324d5c"/><path d="m35 49h-6a1 1 0 0 1 0-2h6a1 1 0 0 1 0 2z" fill="#4393c1"/><path d="m34 53h-4a1 1 0 0 1 0-2h4a1 1 0 0 1 0 2z" fill="#4393c1"/><g fill="#324d5c"><path d="m13 34h-4a1 1 0 0 1 0-2h4a1 1 0 0 1 0 2z"/><path d="m55 34h-4a1 1 0 0 1 0-2h4a1 1 0 0 1 0 2z"/></g></svg>